<svg xmlns="http://www.w3.org/2000/svg" width="2160" height="1200" viewBox="0 0 2160 1200">
<rect width="2160" height="1200" fill="#000000"/>
<g transform="rotate(-3 1080 600)"><linearGradient id="t0_0" x1="0" y1="0" x2="1" y2="1"><stop offset="0" stop-color="#7f1d1d"/><stop offset="1" stop-color="#b91c1c"/></linearGradient>
<rect x="-40" y="-60" width="172" height="240" rx="8" fill="url(#t0_0)" opacity="0.85"/><linearGradient id="t0_1" x1="0" y1="0" x2="1" y2="1"><stop offset="0" stop-color="#1e3a8a"/><stop offset="1" stop-color="#3b82f6"/></linearGradient>
<rect x="144" y="-60" width="172" height="240" rx="8" fill="url(#t0_1)" opacity="0.85"/><linearGradient id="t0_2" x1="0" y1="0" x2="1" y2="1"><stop offset="0" stop-color="#14532d"/><stop offset="1" stop-color="#22c55e"/></linearGradient>
<rect x="328" y="-60" width="172" height="240" rx="8" fill="url(#t0_2)" opacity="0.85"/><linearGradient id="t0_3" x1="0" y1="0" x2="1" y2="1"><stop offset="0" stop-color="#581c87"/><stop offset="1" stop-color="#a855f7"/></linearGradient>
<rect x="512" y="-60" width="172" height="240" rx="8" fill="url(#t0_3)" opacity="0.85"/><linearGradient id="t0_4" x1="0" y1="0" x2="1" y2="1"><stop offset="0" stop-color="#7c2d12"/><stop offset="1" stop-color="#f97316"/></linearGradient>
<rect x="696" y="-60" width="172" height="240" rx="8" fill="url(#t0_4)" opacity="0.85"/><linearGradient id="t0_5" x1="0" y1="0" x2="1" y2="1"><stop offset="0" stop-color="#0c4a6e"/><stop offset="1" stop-color="#0ea5e9"/></linearGradient>
<rect x="880" y="-60" width="172" height="240" rx="8" fill="url(#t0_5)" opacity="0.85"/><linearGradient id="t0_6" x1="0" y1="0" x2="1" y2="1"><stop offset="0" stop-color="#831843"/><stop offset="1" stop-color="#ec4899"/></linearGradient>
<rect x="1064" y="-60" width="172" height="240" rx="8" fill="url(#t0_6)" opacity="0.85"/><linearGradient id="t0_7" x1="0" y1="0" x2="1" y2="1"><stop offset="0" stop-color="#713f12"/><stop offset="1" stop-color="#eab308"/></linearGradient>
<rect x="1248" y="-60" width="172" height="240" rx="8" fill="url(#t0_7)" opacity="0.85"/><linearGradient id="t0_8" x1="0" y1="0" x2="1" y2="1"><stop offset="0" stop-color="#134e4a"/><stop offset="1" stop-color="#14b8a6"/></linearGradient>
<rect x="1432" y="-60" width="172" height="240" rx="8" fill="url(#t0_8)" opacity="0.85"/><linearGradient id="t0_9" x1="0" y1="0" x2="1" y2="1"><stop offset="0" stop-color="#312e81"/><stop offset="1" stop-color="#818cf8"/></linearGradient>
<rect x="1616" y="-60" width="172" height="240" rx="8" fill="url(#t0_9)" opacity="0.85"/><linearGradient id="t0_10" x1="0" y1="0" x2="1" y2="1"><stop offset="0" stop-color="#7f1d1d"/><stop offset="1" stop-color="#b91c1c"/></linearGradient>
<rect x="1800" y="-60" width="172" height="240" rx="8" fill="url(#t0_10)" opacity="0.85"/><linearGradient id="t0_11" x1="0" y1="0" x2="1" y2="1"><stop offset="0" stop-color="#1e3a8a"/><stop offset="1" stop-color="#3b82f6"/></linearGradient>
<rect x="1984" y="-60" width="172" height="240" rx="8" fill="url(#t0_11)" opacity="0.85"/><linearGradient id="t1_0" x1="0" y1="0" x2="1" y2="1"><stop offset="0" stop-color="#14532d"/><stop offset="1" stop-color="#22c55e"/></linearGradient>
<rect x="-40" y="192" width="172" height="240" rx="8" fill="url(#t1_0)" opacity="0.85"/><linearGradient id="t1_1" x1="0" y1="0" x2="1" y2="1"><stop offset="0" stop-color="#581c87"/><stop offset="1" stop-color="#a855f7"/></linearGradient>
<rect x="144" y="192" width="172" height="240" rx="8" fill="url(#t1_1)" opacity="0.85"/><linearGradient id="t1_2" x1="0" y1="0" x2="1" y2="1"><stop offset="0" stop-color="#7c2d12"/><stop offset="1" stop-color="#f97316"/></linearGradient>
<rect x="328" y="192" width="172" height="240" rx="8" fill="url(#t1_2)" opacity="0.85"/><linearGradient id="t1_3" x1="0" y1="0" x2="1" y2="1"><stop offset="0" stop-color="#0c4a6e"/><stop offset="1" stop-color="#0ea5e9"/></linearGradient>
<rect x="512" y="192" width="172" height="240" rx="8" fill="url(#t1_3)" opacity="0.85"/><linearGradient id="t1_4" x1="0" y1="0" x2="1" y2="1"><stop offset="0" stop-color="#831843"/><stop offset="1" stop-color="#ec4899"/></linearGradient>
<rect x="696" y="192" width="172" height="240" rx="8" fill="url(#t1_4)" opacity="0.85"/><linearGradient id="t1_5" x1="0" y1="0" x2="1" y2="1"><stop offset="0" stop-color="#713f12"/><stop offset="1" stop-color="#eab308"/></linearGradient>
<rect x="880" y="192" width="172" height="240" rx="8" fill="url(#t1_5)" opacity="0.85"/><linearGradient id="t1_6" x1="0" y1="0" x2="1" y2="1"><stop offset="0" stop-color="#134e4a"/><stop offset="1" stop-color="#14b8a6"/></linearGradient>
<rect x="1064" y="192" width="172" height="240" rx="8" fill="url(#t1_6)" opacity="0.85"/><linearGradient id="t1_7" x1="0" y1="0" x2="1" y2="1"><stop offset="0" stop-color="#312e81"/><stop offset="1" stop-color="#818cf8"/></linearGradient>
<rect x="1248" y="192" width="172" height="240" rx="8" fill="url(#t1_7)" opacity="0.85"/><linearGradient id="t1_8" x1="0" y1="0" x2="1" y2="1"><stop offset="0" stop-color="#7f1d1d"/><stop offset="1" stop-color="#b91c1c"/></linearGradient>
<rect x="1432" y="192" width="172" height="240" rx="8" fill="url(#t1_8)" opacity="0.85"/><linearGradient id="t1_9" x1="0" y1="0" x2="1" y2="1"><stop offset="0" stop-color="#1e3a8a"/><stop offset="1" stop-color="#3b82f6"/></linearGradient>
<rect x="1616" y="192" width="172" height="240" rx="8" fill="url(#t1_9)" opacity="0.85"/><linearGradient id="t1_10" x1="0" y1="0" x2="1" y2="1"><stop offset="0" stop-color="#14532d"/><stop offset="1" stop-color="#22c55e"/></linearGradient>
<rect x="1800" y="192" width="172" height="240" rx="8" fill="url(#t1_10)" opacity="0.85"/><linearGradient id="t1_11" x1="0" y1="0" x2="1" y2="1"><stop offset="0" stop-color="#581c87"/><stop offset="1" stop-color="#a855f7"/></linearGradient>
<rect x="1984" y="192" width="172" height="240" rx="8" fill="url(#t1_11)" opacity="0.85"/><linearGradient id="t2_0" x1="0" y1="0" x2="1" y2="1"><stop offset="0" stop-color="#7c2d12"/><stop offset="1" stop-color="#f97316"/></linearGradient>
<rect x="-40" y="444" width="172" height="240" rx="8" fill="url(#t2_0)" opacity="0.85"/><linearGradient id="t2_1" x1="0" y1="0" x2="1" y2="1"><stop offset="0" stop-color="#0c4a6e"/><stop offset="1" stop-color="#0ea5e9"/></linearGradient>
<rect x="144" y="444" width="172" height="240" rx="8" fill="url(#t2_1)" opacity="0.85"/><linearGradient id="t2_2" x1="0" y1="0" x2="1" y2="1"><stop offset="0" stop-color="#831843"/><stop offset="1" stop-color="#ec4899"/></linearGradient>
<rect x="328" y="444" width="172" height="240" rx="8" fill="url(#t2_2)" opacity="0.85"/><linearGradient id="t2_3" x1="0" y1="0" x2="1" y2="1"><stop offset="0" stop-color="#713f12"/><stop offset="1" stop-color="#eab308"/></linearGradient>
<rect x="512" y="444" width="172" height="240" rx="8" fill="url(#t2_3)" opacity="0.85"/><linearGradient id="t2_4" x1="0" y1="0" x2="1" y2="1"><stop offset="0" stop-color="#134e4a"/><stop offset="1" stop-color="#14b8a6"/></linearGradient>
<rect x="696" y="444" width="172" height="240" rx="8" fill="url(#t2_4)" opacity="0.85"/><linearGradient id="t2_5" x1="0" y1="0" x2="1" y2="1"><stop offset="0" stop-color="#312e81"/><stop offset="1" stop-color="#818cf8"/></linearGradient>
<rect x="880" y="444" width="172" height="240" rx="8" fill="url(#t2_5)" opacity="0.85"/><linearGradient id="t2_6" x1="0" y1="0" x2="1" y2="1"><stop offset="0" stop-color="#7f1d1d"/><stop offset="1" stop-color="#b91c1c"/></linearGradient>
<rect x="1064" y="444" width="172" height="240" rx="8" fill="url(#t2_6)" opacity="0.85"/><linearGradient id="t2_7" x1="0" y1="0" x2="1" y2="1"><stop offset="0" stop-color="#1e3a8a"/><stop offset="1" stop-color="#3b82f6"/></linearGradient>
<rect x="1248" y="444" width="172" height="240" rx="8" fill="url(#t2_7)" opacity="0.85"/><linearGradient id="t2_8" x1="0" y1="0" x2="1" y2="1"><stop offset="0" stop-color="#14532d"/><stop offset="1" stop-color="#22c55e"/></linearGradient>
<rect x="1432" y="444" width="172" height="240" rx="8" fill="url(#t2_8)" opacity="0.85"/><linearGradient id="t2_9" x1="0" y1="0" x2="1" y2="1"><stop offset="0" stop-color="#581c87"/><stop offset="1" stop-color="#a855f7"/></linearGradient>
<rect x="1616" y="444" width="172" height="240" rx="8" fill="url(#t2_9)" opacity="0.85"/><linearGradient id="t2_10" x1="0" y1="0" x2="1" y2="1"><stop offset="0" stop-color="#7c2d12"/><stop offset="1" stop-color="#f97316"/></linearGradient>
<rect x="1800" y="444" width="172" height="240" rx="8" fill="url(#t2_10)" opacity="0.85"/><linearGradient id="t2_11" x1="0" y1="0" x2="1" y2="1"><stop offset="0" stop-color="#0c4a6e"/><stop offset="1" stop-color="#0ea5e9"/></linearGradient>
<rect x="1984" y="444" width="172" height="240" rx="8" fill="url(#t2_11)" opacity="0.85"/><linearGradient id="t3_0" x1="0" y1="0" x2="1" y2="1"><stop offset="0" stop-color="#831843"/><stop offset="1" stop-color="#ec4899"/></linearGradient>
<rect x="-40" y="696" width="172" height="240" rx="8" fill="url(#t3_0)" opacity="0.85"/><linearGradient id="t3_1" x1="0" y1="0" x2="1" y2="1"><stop offset="0" stop-color="#713f12"/><stop offset="1" stop-color="#eab308"/></linearGradient>
<rect x="144" y="696" width="172" height="240" rx="8" fill="url(#t3_1)" opacity="0.85"/><linearGradient id="t3_2" x1="0" y1="0" x2="1" y2="1"><stop offset="0" stop-color="#134e4a"/><stop offset="1" stop-color="#14b8a6"/></linearGradient>
<rect x="328" y="696" width="172" height="240" rx="8" fill="url(#t3_2)" opacity="0.85"/><linearGradient id="t3_3" x1="0" y1="0" x2="1" y2="1"><stop offset="0" stop-color="#312e81"/><stop offset="1" stop-color="#818cf8"/></linearGradient>
<rect x="512" y="696" width="172" height="240" rx="8" fill="url(#t3_3)" opacity="0.85"/><linearGradient id="t3_4" x1="0" y1="0" x2="1" y2="1"><stop offset="0" stop-color="#7f1d1d"/><stop offset="1" stop-color="#b91c1c"/></linearGradient>
<rect x="696" y="696" width="172" height="240" rx="8" fill="url(#t3_4)" opacity="0.85"/><linearGradient id="t3_5" x1="0" y1="0" x2="1" y2="1"><stop offset="0" stop-color="#1e3a8a"/><stop offset="1" stop-color="#3b82f6"/></linearGradient>
<rect x="880" y="696" width="172" height="240" rx="8" fill="url(#t3_5)" opacity="0.85"/><linearGradient id="t3_6" x1="0" y1="0" x2="1" y2="1"><stop offset="0" stop-color="#14532d"/><stop offset="1" stop-color="#22c55e"/></linearGradient>
<rect x="1064" y="696" width="172" height="240" rx="8" fill="url(#t3_6)" opacity="0.85"/><linearGradient id="t3_7" x1="0" y1="0" x2="1" y2="1"><stop offset="0" stop-color="#581c87"/><stop offset="1" stop-color="#a855f7"/></linearGradient>
<rect x="1248" y="696" width="172" height="240" rx="8" fill="url(#t3_7)" opacity="0.85"/><linearGradient id="t3_8" x1="0" y1="0" x2="1" y2="1"><stop offset="0" stop-color="#7c2d12"/><stop offset="1" stop-color="#f97316"/></linearGradient>
<rect x="1432" y="696" width="172" height="240" rx="8" fill="url(#t3_8)" opacity="0.85"/><linearGradient id="t3_9" x1="0" y1="0" x2="1" y2="1"><stop offset="0" stop-color="#0c4a6e"/><stop offset="1" stop-color="#0ea5e9"/></linearGradient>
<rect x="1616" y="696" width="172" height="240" rx="8" fill="url(#t3_9)" opacity="0.85"/><linearGradient id="t3_10" x1="0" y1="0" x2="1" y2="1"><stop offset="0" stop-color="#831843"/><stop offset="1" stop-color="#ec4899"/></linearGradient>
<rect x="1800" y="696" width="172" height="240" rx="8" fill="url(#t3_10)" opacity="0.85"/><linearGradient id="t3_11" x1="0" y1="0" x2="1" y2="1"><stop offset="0" stop-color="#713f12"/><stop offset="1" stop-color="#eab308"/></linearGradient>
<rect x="1984" y="696" width="172" height="240" rx="8" fill="url(#t3_11)" opacity="0.85"/><linearGradient id="t4_0" x1="0" y1="0" x2="1" y2="1"><stop offset="0" stop-color="#134e4a"/><stop offset="1" stop-color="#14b8a6"/></linearGradient>
<rect x="-40" y="948" width="172" height="240" rx="8" fill="url(#t4_0)" opacity="0.85"/><linearGradient id="t4_1" x1="0" y1="0" x2="1" y2="1"><stop offset="0" stop-color="#312e81"/><stop offset="1" stop-color="#818cf8"/></linearGradient>
<rect x="144" y="948" width="172" height="240" rx="8" fill="url(#t4_1)" opacity="0.85"/><linearGradient id="t4_2" x1="0" y1="0" x2="1" y2="1"><stop offset="0" stop-color="#7f1d1d"/><stop offset="1" stop-color="#b91c1c"/></linearGradient>
<rect x="328" y="948" width="172" height="240" rx="8" fill="url(#t4_2)" opacity="0.85"/><linearGradient id="t4_3" x1="0" y1="0" x2="1" y2="1"><stop offset="0" stop-color="#1e3a8a"/><stop offset="1" stop-color="#3b82f6"/></linearGradient>
<rect x="512" y="948" width="172" height="240" rx="8" fill="url(#t4_3)" opacity="0.85"/><linearGradient id="t4_4" x1="0" y1="0" x2="1" y2="1"><stop offset="0" stop-color="#14532d"/><stop offset="1" stop-color="#22c55e"/></linearGradient>
<rect x="696" y="948" width="172" height="240" rx="8" fill="url(#t4_4)" opacity="0.85"/><linearGradient id="t4_5" x1="0" y1="0" x2="1" y2="1"><stop offset="0" stop-color="#581c87"/><stop offset="1" stop-color="#a855f7"/></linearGradient>
<rect x="880" y="948" width="172" height="240" rx="8" fill="url(#t4_5)" opacity="0.85"/><linearGradient id="t4_6" x1="0" y1="0" x2="1" y2="1"><stop offset="0" stop-color="#7c2d12"/><stop offset="1" stop-color="#f97316"/></linearGradient>
<rect x="1064" y="948" width="172" height="240" rx="8" fill="url(#t4_6)" opacity="0.85"/><linearGradient id="t4_7" x1="0" y1="0" x2="1" y2="1"><stop offset="0" stop-color="#0c4a6e"/><stop offset="1" stop-color="#0ea5e9"/></linearGradient>
<rect x="1248" y="948" width="172" height="240" rx="8" fill="url(#t4_7)" opacity="0.85"/><linearGradient id="t4_8" x1="0" y1="0" x2="1" y2="1"><stop offset="0" stop-color="#831843"/><stop offset="1" stop-color="#ec4899"/></linearGradient>
<rect x="1432" y="948" width="172" height="240" rx="8" fill="url(#t4_8)" opacity="0.85"/><linearGradient id="t4_9" x1="0" y1="0" x2="1" y2="1"><stop offset="0" stop-color="#713f12"/><stop offset="1" stop-color="#eab308"/></linearGradient>
<rect x="1616" y="948" width="172" height="240" rx="8" fill="url(#t4_9)" opacity="0.85"/><linearGradient id="t4_10" x1="0" y1="0" x2="1" y2="1"><stop offset="0" stop-color="#134e4a"/><stop offset="1" stop-color="#14b8a6"/></linearGradient>
<rect x="1800" y="948" width="172" height="240" rx="8" fill="url(#t4_10)" opacity="0.85"/><linearGradient id="t4_11" x1="0" y1="0" x2="1" y2="1"><stop offset="0" stop-color="#312e81"/><stop offset="1" stop-color="#818cf8"/></linearGradient>
<rect x="1984" y="948" width="172" height="240" rx="8" fill="url(#t4_11)" opacity="0.85"/></g>
</svg>